<svg xmlns="http://www.w3.org/2000/svg" viewBox="0 0 64 64" fill="none" stroke="currentColor" stroke-width="3" stroke-linejoin="round" stroke-linecap="round">
  <title>04 — Bold folder silhouette + minimal aperture</title>
  <path d="M5 16 a3 3 0 0 1 3 -3 L23 13 a3 3 0 0 1 2.4 1.2 L29 19 L56 19 a3 3 0 0 1 3 3 L59 50 a3 3 0 0 1 -3 3 L8 53 a3 3 0 0 1 -3 -3 Z" fill="currentColor" fill-opacity="0.12"/>
  <path d="M5 16 a3 3 0 0 1 3 -3 L23 13 a3 3 0 0 1 2.4 1.2 L29 19 L56 19 a3 3 0 0 1 3 3 L59 50 a3 3 0 0 1 -3 3 L8 53 a3 3 0 0 1 -3 -3 Z"/>
  <circle cx="32" cy="36" r="10"/>
  <g stroke-width="2.2">
    <path d="M32 28 L37 36 L27 36 Z" fill="currentColor" stroke="none"/>
    <path d="M32 28 L37 36 L27 36 Z" fill="currentColor" stroke="none" transform="rotate(120 32 36)"/>
    <path d="M32 28 L37 36 L27 36 Z" fill="currentColor" stroke="none" transform="rotate(240 32 36)"/>
  </g>
  <circle cx="32" cy="36" r="2.6" fill="currentColor" stroke="none"/>
</svg>
