<svg xmlns="http://www.w3.org/2000/svg" viewBox="0 0 64 64" fill="none" stroke="currentColor" stroke-width="3" stroke-linejoin="round" stroke-linecap="round">
  <title>05 — Folder filled, line aperture overlay</title>
  <path d="M5 16 a3 3 0 0 1 3 -3 L23 13 a3 3 0 0 1 2.4 1.2 L29 19 L56 19 a3 3 0 0 1 3 3 L59 50 a3 3 0 0 1 -3 3 L8 53 a3 3 0 0 1 -3 -3 Z" fill="currentColor" stroke="none"/>
  <path d="M5 16 a3 3 0 0 1 3 -3 L23 13 a3 3 0 0 1 2.4 1.2 L29 19" stroke="currentColor" stroke-opacity="0.5" fill="none"/>
  <g style="--ap: var(--bg, #fff)">
    <circle cx="40" cy="37" r="13" fill="var(--ap, #fff)" stroke="none"/>
    <circle cx="40" cy="37" r="13" stroke="currentColor" fill="none"/>
    <g stroke="currentColor" stroke-width="2.6" stroke-linecap="round">
      <line x1="40" y1="24" x2="40" y2="34"/>
      <line x1="51.3" y1="30.5" x2="42.6" y2="35.5"/>
      <line x1="51.3" y1="43.5" x2="42.6" y2="38.5"/>
      <line x1="40" y1="50" x2="40" y2="40"/>
      <line x1="28.7" y1="43.5" x2="37.4" y2="38.5"/>
      <line x1="28.7" y1="30.5" x2="37.4" y2="35.5"/>
    </g>
    <circle cx="40" cy="37" r="3.4" fill="currentColor" stroke="none"/>
  </g>
</svg>
